<?xml version="1.0" standalone="no"?>
<!DOCTYPE svg PUBLIC "-//W3C//DTD SVG 20010904//EN"
 "http://www.w3.org/TR/2001/REC-SVG-20010904/DTD/svg10.dtd">
<svg version="1.0" xmlns="http://www.w3.org/2000/svg"
 width="700.000000pt" height="700.000000pt" viewBox="0 0 700.000000 700.000000"
 preserveAspectRatio="xMidYMid meet">
<metadata>
Created by potrace 1.16, written by Peter Selinger 2001-2019
</metadata>
<g transform="translate(0.000000,700.000000) scale(0.017500,-0.017500)"
fill="#000000" stroke="none">
<path d="M20465 36624 c-335 -24 -532 -49 -755 -95 -1278 -263 -2389 -984
-3142 -2039 -84 -118 -231 -352 -302 -480 l-47 -85 -147 -1 c-153 0 -210 -9
-352 -51 -397 -118 -716 -452 -819 -858 -19 -77 -150 -979 -171 -1177 -18
-174 18 -399 89 -569 66 -154 150 -277 278 -402 163 -160 346 -257 611 -324
l33 -8 49 -190 c149 -589 376 -1100 708 -1593 64 -96 123 -183 131 -193 14
-19 12 -19 -40 1 -499 196 -977 475 -1434 839 -80 64 -317 275 -356 317 -26
28 -27 33 -32 199 -10 286 -57 576 -128 790 -112 338 -267 526 -489 596 -78
25 -209 29 -290 10 -174 -42 -313 -183 -391 -396 -12 -33 -24 -62 -25 -64 -2
-2 -65 42 -141 97 -272 197 -429 287 -611 350 -103 35 -112 37 -247 37 -162 0
-219 -15 -341 -90 -205 -128 -314 -337 -314 -605 l0 -78 -70 -21 c-87 -27
-204 -88 -279 -146 -144 -110 -309 -322 -413 -528 -257 -513 -241 -890 53
-1235 81 -96 186 -188 374 -330 234 -176 266 -205 457 -415 925 -1012 1855
-1735 2718 -2110 421 -183 879 -305 1248 -333 l92 -7 0 -1476 c0 -917 4 -1531
11 -1621 8 -124 30 -268 54 -361 6 -24 0 -29 -67 -69 -290 -171 -646 -478
-867 -749 -225 -274 -396 -614 -455 -901 -56 -274 -47 -588 23 -861 l29 -111
-41 -37 c-737 -652 -1376 -1445 -1843 -2288 -891 -1607 -1251 -3451 -1022
-5248 11 -93 22 -180 22 -191 1 -18 -62 -64 -329 -242 -921 -613 -1614 -1162
-2181 -1727 -191 -191 -243 -246 -365 -385 -325 -372 -575 -760 -705 -1096
-196 -509 -161 -964 105 -1335 60 -83 180 -208 271 -281 207 -166 562 -334
912 -432 513 -143 1055 -210 1808 -223 782 -13 1680 54 2735 203 181 25 722
110 760 119 15 3 48 -18 115 -72 1248 -1001 2751 -1638 4340 -1838 422 -53
552 -60 1080 -60 538 0 662 7 1115 65 1163 148 2295 542 3325 1158 319 191
791 524 1040 737 20 16 60 50 90 75 445 369 934 889 1318 1399 782 1040 1324
2250 1573 3514 l33 168 125 76 c70 41 142 84 161 95 128 74 597 371 885 562
1290 855 2254 1690 2817 2441 421 563 618 1079 577 1513 -12 124 -21 169 -56
277 -142 436 -535 772 -1148 982 -392 134 -836 215 -1450 265 -217 18 -1240
18 -1505 0 -485 -32 -870 -68 -1318 -122 -133 -17 -246 -30 -251 -30 -5 0 -30
35 -57 78 -81 131 -281 419 -405 582 -256 338 -478 591 -799 911 l-237 235 25
65 c31 84 78 268 99 388 24 135 24 461 0 591 -61 336 -206 651 -434 944 -45
58 -53 73 -48 100 12 73 26 290 34 514 38 1084 -165 2180 -607 3282 -140 350
-334 756 -530 1107 l-102 182 0 253 c0 430 -25 634 -105 875 -44 134 -135 321
-209 431 -31 46 -56 87 -56 91 0 4 14 20 31 37 48 45 267 289 340 379 180 221
358 483 485 714 l62 113 149 3 c157 2 251 18 383 61 384 128 690 458 789 850
11 44 43 243 71 444 28 201 63 444 77 540 45 305 31 503 -52 722 -60 159 -143
288 -268 417 -167 171 -383 292 -609 342 -36 7 -59 18 -62 28 -3 9 -16 66 -31
126 -160 681 -480 1350 -914 1915 -332 433 -748 824 -1189 1118 -708 473
-1479 748 -2342 837 -138 15 -609 27 -715 19z m571 -354 c1572 -124 2919 -963
3734 -2325 21 -35 13 -30 -69 45 -599 549 -1266 941 -2116 1242 -647 229
-1422 387 -2145 439 -242 17 -756 15 -990 -5 -584 -49 -1145 -179 -1602 -371
-21 -8 -38 -13 -38 -10 0 8 184 142 305 221 673 442 1463 708 2285 767 110 8
519 6 636 -3z m-511 -909 c1021 -97 1954 -352 2745 -752 535 -270 954 -571
1330 -955 256 -263 473 -554 614 -825 53 -102 69 -145 89 -239 30 -135 52
-254 67 -365 6 -44 13 -93 16 -110 2 -16 -18 29 -45 100 -62 165 -71 185 -142
327 -328 656 -909 1201 -1744 1639 -823 431 -1970 743 -3105 845 -388 34 -953
29 -1320 -12 -1074 -120 -1936 -547 -2464 -1222 -27 -34 -51 -62 -53 -62 -11
0 165 301 260 445 86 129 117 165 215 248 644 547 1513 867 2567 947 142 11
827 4 970 -9z m-185 -1011 c381 -23 731 -82 865 -146 62 -29 70 -44 23 -44
-56 0 -295 -30 -453 -56 -919 -153 -1712 -486 -2320 -972 -135 -109 -366 -335
-472 -462 -271 -327 -721 -984 -975 -1425 -152 -263 -307 -564 -309 -598 0 -7
-5 -1 -11 13 -16 40 -22 599 -9 815 72 1143 426 1947 1034 2346 251 165 719
338 1162 429 216 45 607 94 820 103 172 8 494 6 645 -3z m-4331 -892 c-182
-447 -298 -937 -351 -1473 -19 -195 -16 -724 5 -914 9 -85 15 -156 14 -157 -7
-7 -158 65 -212 101 -127 83 -256 237 -320 381 -31 69 -61 192 -70 284 -8 75
7 202 94 816 50 347 65 435 90 504 68 186 177 326 341 437 119 81 288 139 412
142 l47 1 -50 -122z m9835 -1289 c43 -21 100 -55 126 -74 71 -52 190 -183 233
-256 87 -148 134 -334 124 -489 -5 -73 -96 -728 -142 -1021 -34 -220 -103
-365 -244 -513 -99 -103 -221 -179 -359 -224 -65 -22 -219 -48 -228 -39 -3 3
20 70 52 148 169 428 273 860 331 1379 23 214 23 763 0 970 -9 80 -17 151 -17
158 0 18 25 10 124 -39z m-1637 -279 c131 -30 261 -137 327 -269 61 -121 79
-203 79 -371 0 -144 0 -146 -35 -230 -78 -186 -112 -260 -175 -388 -56 -112
-76 -142 -127 -190 -368 -344 -803 -255 -946 193 -32 99 -39 323 -15 450 72
383 352 727 652 799 69 17 181 19 240 6z m-11659 -881 c73 -17 256 -109 375
-188 59 -39 189 -131 288 -203 162 -120 179 -135 175 -158 -3 -14 -8 -81 -12
-150 -6 -114 -9 -131 -39 -190 -84 -167 -119 -336 -112 -530 4 -117 9 -148 36
-230 35 -105 59 -150 135 -257 68 -96 107 -113 160 -72 38 30 34 67 -24 183
-63 128 -84 219 -77 341 3 50 13 117 22 150 21 81 93 227 144 295 23 30 46 71
51 90 5 19 17 143 26 275 21 318 60 473 144 569 119 135 308 71 418 -142 115
-222 192 -618 192 -987 0 -77 5 -158 11 -179 8 -29 37 -65 112 -140 262 -261
648 -564 980 -768 l98 -61 -6 -56 c-127 -1098 -410 -1946 -823 -2463 -46 -58
-56 -66 -75 -58 -61 24 -251 117 -369 181 -667 362 -1386 945 -2083 1689 -100
107 -213 230 -251 273 -80 91 -177 174 -399 340 -201 151 -356 303 -407 402
-112 216 -87 440 88 774 63 119 95 169 173 265 133 164 324 267 462 249 52 -7
103 12 138 53 43 49 47 74 26 196 -36 216 4 365 121 455 74 56 195 77 302 52z
m10474 -1109 c50 -14 133 -92 166 -154 24 -46 27 -61 27 -161 0 -108 -1 -113
-37 -187 -48 -97 -140 -186 -225 -218 -127 -49 -261 -22 -346 69 -63 67 -82
124 -82 247 0 96 2 103 38 176 95 194 274 283 459 228z m-6070 -1132 c735
-648 1711 -1157 2639 -1377 610 -145 1331 -197 2004 -145 524 40 1074 146
1500 289 39 13 71 22 73 20 6 -6 -208 -125 -364 -203 -749 -375 -1590 -547
-2396 -491 -798 55 -1533 290 -2200 705 -490 304 -953 733 -1302 1207 -31 42
-55 77 -52 77 3 0 47 -37 98 -82z m-900 -326 c282 -137 554 -241 843 -323
l140 -39 55 -59 c82 -87 250 -242 380 -350 1320 -1100 3130 -1452 4770 -926
397 128 840 336 1174 552 54 35 99 63 101 61 1 -2 56 -73 122 -158 712 -919
1264 -1970 1579 -3007 31 -102 54 -186 52 -188 -2 -3 -26 3 -53 11 -228 70
-601 91 -957 53 l-107 -11 -61 45 c-33 25 -82 56 -110 69 -30 14 -52 31 -55
43 -2 11 -16 101 -29 200 -113 814 -144 989 -218 1229 -84 277 -232 608 -274
614 -15 2 -23 -4 -28 -20 -3 -13 -6 -124 -6 -248 0 -353 24 -575 105 -980 45
-221 83 -448 120 -721 l7 -46 -153 -6 c-303 -14 -799 -4 -970 18 l-46 7 -6
166 c-6 190 -18 249 -77 367 -73 148 -177 251 -325 321 -156 74 -17 68 -1715
72 -1585 3 -1662 1 -1783 -39 -148 -49 -307 -180 -382 -313 -72 -130 -88 -197
-93 -407 l-4 -186 -121 -7 c-153 -8 -392 -8 -724 1 l-263 6 0 34 c0 47 55 532
85 747 14 99 45 289 70 422 50 271 78 460 100 692 21 225 37 558 29 620 -6 46
-9 53 -27 50 -60 -9 -252 -477 -347 -842 -21 -82 -44 -152 -52 -156 -25 -14
-243 -40 -419 -52 -385 -24 -815 34 -1230 167 -63 21 -117 40 -121 44 -4 3 15
35 43 70 359 463 665 1338 789 2261 27 206 30 222 38 218 4 -2 73 -36 154 -76z
m8030 -816 c125 -214 199 -454 214 -699 l7 -102 -123 175 c-119 170 -238 330
-353 476 l-56 71 104 82 c57 45 109 89 116 98 12 13 15 12 32 -8 10 -13 37
-54 59 -93z m-7376 -2606 c-30 -239 -65 -541 -78 -670 l-22 -235 -66 -66 c-79
-80 -132 -167 -167 -274 -23 -69 -26 -97 -26 -205 -1 -109 3 -135 26 -205 28
-84 81 -182 123 -226 l25 -26 -16 -209 c-15 -207 -35 -601 -35 -700 l0 -52
-62 -25 c-35 -14 -64 -24 -66 -22 -1 1 -10 35 -19 76 -15 67 -17 222 -20 1661
l-4 1587 33 5 c18 3 83 8 143 11 61 4 148 12 195 18 58 8 86 9 88 2 1 -6 -22
-206 -52 -445z m2544 -517 c0 -424 5 -457 75 -600 55 -112 121 -186 262 -295
154 -119 215 -199 242 -319 6 -25 11 -204 11 -422 l0 -378 -597 3 -598 3 -56
27 c-76 38 -146 109 -183 188 l-31 65 0 905 0 905 26 56 c49 103 131 176 239
210 47 15 96 18 333 18 l277 1 0 -367z m2632 330 c85 -40 151 -106 191 -191
l32 -67 3 -869 c3 -946 4 -934 -53 -1031 -35 -59 -105 -122 -173 -153 l-57
-27 -872 -3 -873 -2 0 374 c0 477 -12 547 -120 709 -55 82 -116 141 -247 241
-139 105 -203 203 -223 341 -5 39 -10 215 -10 393 l0 322 1168 -2 1167 -3 67
-32z m1263 -908 c533 -2 606 -4 650 -19 150 -50 244 -196 232 -360 -6 -91 -34
-153 -97 -220 -80 -84 -133 -103 -357 -127 -352 -38 -794 -37 -1065 2 l-78 11
0 366 0 365 58 -8 c31 -5 327 -9 657 -10z m-5095 -371 l0 -371 -92 -7 c-346
-24 -967 16 -1089 70 -110 49 -194 167 -206 286 -16 172 85 328 241 377 46 14
125 16 599 16 l547 0 0 -371z m6915 262 c132 -23 226 -51 314 -95 l78 -40 32
-153 c73 -344 127 -737 152 -1088 12 -180 15 -676 4 -833 l-7 -107 -37 31
c-457 384 -829 588 -1281 703 l-125 32 -7 154 c-4 85 -14 252 -23 369 l-16
215 33 25 c217 163 315 456 243 725 -9 32 -13 61 -10 64 24 24 505 23 650 -2z
m-7864 -938 c173 -19 261 -22 576 -23 l373 0 0 -41 c0 -56 33 -181 66 -246 87
-174 217 -292 398 -362 l81 -31 1610 -3 c1771 -3 1678 -6 1813 58 237 112 384
324 408 588 6 60 10 72 23 68 118 -35 814 -43 1091 -13 85 9 160 17 166 17 8
0 13 -66 18 -207 3 -115 9 -242 12 -284 l6 -77 -233 0 c-155 0 -278 -5 -364
-16 -326 -41 -659 -133 -940 -259 -153 -68 -395 -208 -417 -241 -14 -20 -8
-53 13 -72 20 -18 22 -18 67 -1 394 147 798 243 1172 277 148 13 423 13 570
-1 645 -58 1227 -323 1717 -781 317 -297 511 -577 613 -887 21 -64 41 -128 44
-143 l6 -27 -62 38 c-334 202 -932 221 -1758 55 -431 -86 -773 -179 -1350
-367 l-165 -54 -16 81 c-61 304 -267 527 -663 716 -269 129 -564 218 -966 292
-117 22 -150 23 -540 23 l-415 0 -150 -29 c-958 -183 -1501 -516 -1593 -977
-9 -46 -17 -86 -18 -87 -1 -2 -78 21 -171 52 -1190 391 -2119 537 -2701 425
-169 -33 -334 -102 -436 -182 l-38 -31 7 45 c9 54 45 172 78 259 182 480 700
1007 1268 1289 741 369 1624 382 2693 40 68 -21 131 -37 139 -34 8 4 20 18 26
32 17 38 -3 62 -116 136 -335 219 -741 363 -1188 423 -92 12 -202 18 -375 18
-250 1 -328 -6 -537 -46 -62 -12 -114 -19 -116 -17 -2 2 2 114 9 249 7 135 13
278 13 319 1 72 1 73 25 67 13 -3 115 -16 227 -28z m4182 -2334 c305 -76 571
-183 746 -300 86 -57 198 -167 238 -235 47 -78 63 -155 70 -316 6 -144 -2
-217 -33 -316 -15 -44 -21 -51 -82 -83 -140 -74 -182 -101 -175 -109 5 -4 3
-5 -4 -2 -6 4 -51 -13 -100 -37 -48 -24 -124 -61 -168 -81 -44 -21 -140 -66
-213 -101 -73 -35 -135 -64 -137 -64 -3 0 -44 -19 -92 -41 -269 -126 -698
-315 -1078 -474 -88 -36 -173 -72 -190 -80 -73 -33 -495 -202 -542 -217 -18
-6 -29 -16 -26 -21 3 -6 1 -7 -5 -3 -10 6 -76 -16 -149 -49 -17 -8 -37 -15
-45 -15 -8 0 -18 -4 -23 -9 -10 -8 -171 -68 -290 -108 l-61 -20 -12 181 c-13
200 -30 336 -68 561 -40 240 -70 353 -183 707 -22 70 -44 160 -49 200 -10 77
1 316 16 379 19 77 67 154 142 230 169 171 473 316 892 424 l93 24 713 1 713
0 102 -26z m-5053 -429 c508 -58 1150 -210 1805 -425 l242 -80 7 -71 c9 -101
37 -221 92 -394 105 -335 155 -566 193 -900 37 -324 36 -519 -5 -760 -57 -335
-188 -661 -368 -910 -276 -383 -634 -626 -1056 -716 -149 -32 -418 -32 -567
-1 -333 72 -554 236 -696 517 -166 331 -210 817 -126 1400 11 77 22 141 23
143 2 2 41 -4 87 -13 355 -67 779 5 1224 207 129 59 297 148 279 148 -5 0 -50
-14 -100 -30 -274 -94 -555 -143 -814 -143 -258 0 -421 34 -615 127 -99 47
-118 62 -190 137 -277 290 -490 617 -605 930 -55 148 -75 330 -49 451 47 219
259 359 606 397 118 13 467 6 633 -14z m9141 15 c352 -36 556 -154 620 -361
18 -56 19 -72 9 -134 -69 -427 -318 -885 -690 -1269 -105 -109 -123 -123 -208
-163 -175 -84 -457 -133 -677 -119 -231 15 -511 71 -729 145 -49 17 -91 29
-93 27 -6 -6 151 -88 286 -150 248 -113 529 -193 766 -217 134 -13 330 -7 440
15 39 8 72 12 74 10 7 -6 28 -145 47 -299 21 -180 24 -544 6 -685 -80 -610
-331 -945 -794 -1059 -414 -102 -859 -9 -1240 259 -108 76 -320 282 -400 390
-215 289 -351 619 -415 1005 -27 168 -25 524 5 755 45 341 90 546 187 850 60
188 95 341 95 413 0 33 4 47 18 52 148 57 615 203 892 279 534 145 958 224
1395 259 96 8 311 6 406 -3z m-10305 -1581 c87 -123 208 -270 327 -395 l84
-89 -23 -133 c-70 -403 -82 -845 -30 -1149 12 -70 6 -110 -15 -98 -5 4 -49 -5
-97 -18 -48 -14 -141 -39 -207 -56 -66 -17 -195 -51 -287 -75 -92 -25 -189
-48 -215 -51 -26 -4 -120 -24 -208 -45 -231 -55 -597 -133 -845 -179 -118 -22
-253 -48 -300 -56 -109 -21 -384 -64 -388 -61 -8 9 200 428 309 623 413 738
945 1423 1538 1980 l153 145 65 -119 c36 -65 98 -166 139 -224z m11475 -359
c824 -943 1410 -2037 1749 -3268 17 -63 30 -115 28 -117 -9 -9 -401 -185 -412
-185 -7 0 -20 23 -29 53 -22 75 -104 304 -122 340 -8 16 -15 34 -15 39 0 10
-59 161 -89 229 l-21 47 -147 -97 c-239 -157 -304 -198 -378 -241 -38 -22 -99
-59 -135 -82 -74 -46 -306 -183 -453 -265 -57 -32 -94 -59 -90 -65 3 -7 1 -8
-6 -4 -6 4 -31 -3 -54 -17 -23 -13 -96 -53 -162 -87 -66 -35 -124 -66 -130
-71 -9 -7 -64 -35 -262 -138 -46 -24 -80 -47 -77 -52 3 -5 -1 -6 -9 -3 -7 2
-51 -15 -98 -40 -234 -126 -954 -477 -1369 -668 -36 -17 -92 -43 -125 -58 -33
-15 -82 -38 -110 -50 -27 -12 -78 -35 -113 -51 -35 -16 -65 -29 -67 -29 -2 0
-37 -15 -77 -34 -40 -19 -111 -51 -158 -71 -47 -20 -129 -57 -182 -81 -54 -24
-99 -44 -101 -44 -3 0 -31 -12 -63 -27 -33 -14 -63 -27 -69 -29 -5 -1 -35 -13
-65 -27 -76 -34 -180 -79 -345 -147 -77 -32 -196 -81 -265 -109 -69 -29 -181
-75 -250 -102 -69 -28 -172 -70 -230 -94 -58 -24 -211 -84 -340 -135 -129 -50
-296 -116 -370 -145 -74 -29 -180 -69 -235 -89 -55 -21 -179 -67 -275 -103
-209 -78 -533 -197 -610 -223 -30 -11 -131 -47 -225 -81 -93 -33 -201 -71
-240 -84 -38 -12 -135 -46 -215 -74 -173 -61 -284 -88 -565 -135 -455 -76
-863 -111 -1208 -104 l-212 4 110 -18 c200 -32 424 -48 684 -49 l256 -1 -145
-48 c-80 -26 -199 -64 -265 -85 -66 -20 -138 -43 -160 -50 -70 -24 -589 -180
-901 -271 -238 -69 -998 -277 -1074 -294 -19 -4 -152 -37 -295 -73 -953 -240
-1847 -416 -2560 -502 -115 -14 -258 -32 -317 -40 -150 -21 -234 -20 -243 3
-51 129 -175 530 -234 752 -35 132 -101 422 -101 442 0 10 41 14 203 16 494 7
1210 107 2110 296 92 19 196 42 230 50 34 8 94 22 132 30 276 62 1000 243
1025 257 8 5 116 36 240 69 432 117 931 262 1330 387 96 30 191 59 210 65 19
6 41 15 48 21 6 5 12 7 12 4 0 -3 12 -2 28 3 15 5 79 25 142 45 63 20 122 39
130 42 8 3 22 7 30 9 15 3 801 267 1040 349 124 42 306 107 595 210 83 30 201
72 262 94 62 22 122 45 134 51 11 6 28 13 37 15 16 4 66 22 122 43 14 5 28 11
32 12 4 1 54 20 110 41 57 22 150 57 208 78 58 22 121 46 140 54 19 9 60 25
90 36 173 65 875 343 1035 411 50 21 115 48 145 60 30 12 69 28 85 35 17 7
102 43 190 80 186 78 475 202 555 238 30 13 102 45 160 70 58 25 154 68 213
96 60 28 110 51 112 51 38 0 1503 713 1805 878 30 16 82 44 115 62 220 118
321 173 330 180 9 7 133 77 255 143 30 17 66 38 80 47 14 10 63 39 110 65 47
26 87 52 88 56 2 5 7 9 12 9 18 0 175 102 172 111 -1 6 2 8 8 4 8 -5 322 197
485 312 22 15 68 48 102 72 57 39 61 45 51 65 -30 58 -282 428 -294 433 -7 3
-33 -11 -56 -30 -66 -53 -496 -339 -634 -422 -19 -11 -71 -42 -116 -69 -46
-27 -99 -59 -118 -71 -19 -13 -69 -42 -110 -65 -178 -101 -210 -120 -295 -167
-145 -81 -262 -143 -269 -143 -3 0 13 24 38 54 70 86 103 138 160 253 123 246
188 549 199 923 l4 115 94 62 c113 74 453 310 487 338 8 6 -82 94 -90 88 -7
-3 -8 -1 -4 5 4 7 -54 73 -142 163 l-148 152 -65 -43 c-35 -24 -65 -47 -67
-52 -2 -4 -8 -8 -13 -8 -5 0 -28 -13 -51 -30 -22 -16 -46 -30 -53 -30 -7 0
-17 30 -24 71 l-13 71 33 35 c19 20 43 45 54 57 125 131 320 385 404 525 l45
74 201 -204 c110 -112 261 -274 336 -359z m-4457 318 c-50 -307 -68 -683 -43
-919 43 -423 197 -846 432 -1187 27 -40 48 -74 46 -76 -2 -2 -25 -13 -51 -24
-27 -12 -48 -26 -48 -33 0 -7 -3 -10 -6 -6 -3 3 -33 -7 -67 -22 -34 -16 -84
-38 -112 -51 -109 -49 -139 -62 -385 -168 -140 -61 -338 -145 -440 -187 -102
-42 -191 -82 -197 -87 -7 -6 -13 -8 -13 -5 0 4 -21 -3 -47 -14 -123 -54 -654
-264 -983 -390 -201 -77 -374 -143 -385 -148 -54 -23 -118 -47 -660 -243 -409
-148 -1179 -410 -1585 -539 -91 -28 -203 -64 -250 -80 -47 -15 -123 -39 -170
-53 -47 -13 -130 -38 -185 -56 -199 -62 -540 -162 -770 -226 -55 -15 -102 -31
-103 -36 -2 -4 -7 -6 -11 -4 -4 3 -72 -13 -152 -35 -79 -22 -213 -58 -298 -80
-287 -74 -386 -100 -401 -104 -22 -5 -172 -41 -377 -91 -100 -24 -213 -48
-253 -54 -39 -6 -99 -17 -133 -25 -289 -69 -840 -171 -1212 -224 -318 -46
-732 -81 -964 -81 l-114 0 7 113 c28 478 149 1152 297 1667 53 180 159 499
169 505 6 4 76 13 158 21 297 28 520 62 902 134 211 40 493 98 603 124 34 8
96 22 137 32 41 9 82 21 90 25 8 4 170 46 360 93 424 105 733 188 740 198 3 4
33 -34 65 -84 73 -112 222 -266 325 -335 445 -299 1089 -324 1635 -64 582 278
1001 797 1189 1472 15 54 16 55 69 72 29 9 76 28 103 42 27 14 132 58 234 96
102 39 190 74 195 77 6 4 15 7 20 9 50 10 1009 399 1180 478 39 18 82 36 95
40 14 4 53 21 88 36 34 16 64 29 67 29 2 0 32 13 67 29 35 16 101 46 148 67
117 51 380 169 470 211 137 64 214 100 315 148 55 26 127 58 160 71 33 12 61
23 61 23 1 1 -5 -36 -12 -81z m8591 -1428 c978 -63 1654 -257 2035 -583 130
-111 236 -274 282 -432 19 -68 23 -103 22 -230 0 -170 -23 -284 -89 -457 -206
-533 -762 -1198 -1577 -1885 -1505 -1269 -3815 -2619 -6569 -3839 -1975 -874
-4107 -1645 -6204 -2243 -3247 -925 -6171 -1345 -8060 -1155 -681 68 -1219
224 -1561 452 -382 256 -517 611 -398 1052 167 625 828 1415 1909 2281 372
298 972 731 1346 972 l86 55 33 -150 c18 -83 51 -224 75 -314 l43 -164 -127
-97 c-284 -217 -534 -453 -660 -622 -191 -258 -233 -464 -136 -670 100 -211
355 -328 810 -372 151 -15 646 -6 875 16 1840 171 4732 936 7974 2109 3235
1171 6126 2513 7736 3591 401 268 637 453 869 680 181 177 286 312 352 450 59
124 73 187 67 302 -12 259 -212 432 -583 508 -194 39 -345 48 -704 43 l-326
-4 -142 285 c-78 157 -141 287 -139 288 9 9 602 70 1046 108 502 42 1279 53
1715 25z m-1768 -1111 c225 -18 377 -57 464 -119 70 -51 15 -178 -164 -382
-101 -116 -480 -447 -512 -448 -6 0 -25 55 -44 123 -58 209 -200 625 -278 814
-3 8 11 13 44 16 108 8 370 6 490 -4z m-5856 -135 c345 -228 725 -338 1109
-320 74 3 155 8 180 11 40 5 26 -4 -111 -72 -183 -92 -464 -226 -699 -335 -36
-17 -99 -46 -140 -65 -41 -19 -129 -59 -195 -88 -66 -29 -149 -66 -185 -83
-36 -16 -114 -51 -175 -77 -60 -26 -144 -63 -185 -82 -73 -34 -487 -209 -660
-280 -47 -19 -98 -41 -115 -48 -160 -73 -1255 -504 -1487 -586 -21 -7 -38 -17
-38 -21 0 -4 -9 -8 -20 -8 -10 0 -29 -4 -42 -10 -63 -26 -794 -293 -878 -321
-59 -19 -245 -85 -270 -96 -8 -3 -19 -7 -25 -9 -5 -1 -77 -25 -160 -54 -341
-118 -857 -289 -1200 -397 -27 -9 -54 -18 -60 -22 -5 -3 -17 -7 -26 -8 -9 -1
-117 -34 -240 -72 -199 -61 -501 -152 -599 -179 -19 -6 -138 -40 -265 -77
-126 -37 -252 -73 -280 -80 -27 -7 -169 -45 -315 -85 -350 -95 -570 -151 -595
-151 -11 0 -74 -14 -140 -30 -66 -17 -156 -39 -200 -49 -44 -10 -190 -43 -325
-73 -739 -168 -1471 -288 -1985 -327 -112 -9 -525 -28 -525 -24 0 0 -9 81 -19
180 -22 199 -37 408 -47 649 l-6 160 168 -6 c382 -14 925 46 1684 187 369 68
749 150 764 165 6 5 18 9 27 9 17 0 246 54 599 142 286 70 781 203 1075 288
343 98 1035 309 1185 360 47 15 126 40 175 55 50 15 96 32 103 37 6 6 12 8 12
5 0 -7 729 237 1070 358 129 46 258 91 285 100 28 9 60 23 73 31 12 8 22 12
22 9 0 -5 44 10 235 82 66 25 135 50 153 55 18 5 30 13 27 18 -3 6 0 8 7 5 19
-7 220 69 211 80 -4 4 -3 5 4 1 12 -6 120 29 137 45 6 5 16 9 23 9 14 0 77 24
468 177 353 139 438 173 460 183 11 5 81 34 155 63 197 79 359 146 406 167 22
11 65 28 94 40 29 12 72 29 94 39 23 10 86 38 141 61 147 63 323 139 380 165
75 34 236 106 270 121 233 101 306 137 293 146 -8 4 -8 8 -2 8 6 0 62 -34 125
-76z m5119 -5612 c0 -15 -119 -343 -177 -487 -73 -183 -149 -354 -238 -541
-69 -144 -75 -154 -131 -195 -33 -24 -61 -46 -64 -49 -3 -3 -18 -13 -33 -23
-15 -10 -25 -22 -22 -27 3 -6 0 -7 -7 -5 -15 6 -31 -4 -305 -181 -225 -146
-321 -204 -558 -339 -182 -104 -211 -120 -435 -240 -176 -94 -758 -384 -985
-490 -444 -207 -1056 -474 -1390 -607 -55 -22 -113 -46 -130 -53 -16 -8 -113
-46 -215 -86 -102 -39 -257 -100 -345 -135 -552 -216 -1426 -521 -2075 -722
-353 -110 -726 -221 -845 -252 -16 -4 -106 -29 -200 -55 -696 -191 -1369 -342
-1910 -429 -121 -20 -239 -40 -261 -45 -53 -13 -372 -48 -534 -60 -145 -10
-130 -13 -353 88 -267 121 -515 249 -762 394 l-120 71 80 16 c106 22 250 49
300 55 47 5 212 39 460 94 1137 252 2443 621 3810 1077 818 272 1622 563 2440
881 177 69 662 263 785 314 69 28 177 73 240 99 266 110 505 212 755 322 50
22 119 52 155 68 71 30 417 186 545 245 320 149 402 188 580 273 251 120 947
471 1080 544 55 30 138 75 185 101 77 41 127 68 300 164 30 17 71 40 90 51 19
12 66 38 105 59 38 21 92 55 119 75 51 38 66 45 66 30z m-15940 -349 c68 -193
177 -463 256 -637 35 -77 61 -143 58 -148 -7 -11 -510 -10 -619 2 -137 16
-243 39 -322 72 -91 37 -123 67 -116 111 17 114 157 296 393 509 92 83 281
237 291 238 4 0 30 -66 59 -147z m15089 -1465 c-290 -461 -634 -903 -1018
-1307 -1135 -1195 -2629 -2030 -4241 -2370 -1338 -282 -2725 -226 -4040 163
-261 77 -251 70 -134 89 54 10 106 18 114 18 32 3 261 38 365 57 61 11 133 23
160 27 81 11 460 88 610 125 22 5 137 32 255 60 232 55 346 84 740 192 251 69
319 88 655 188 171 51 220 66 438 134 491 152 1355 455 1982 694 187 72 356
137 375 145 19 8 53 22 75 31 194 76 697 285 895 372 135 58 279 121 320 139
41 18 104 46 140 63 36 16 130 60 210 97 232 107 259 120 585 281 171 84 369
184 440 222 305 161 365 193 450 242 50 29 126 73 170 98 70 39 110 64 212
133 12 9 20 19 15 24 -4 4 -2 5 5 1 14 -8 139 71 135 86 -1 5 2 7 7 3 6 -3 32
8 58 24 26 16 49 28 52 26 2 -2 -11 -28 -30 -57z"/>
<path d="M21114 24236 c-373 -121 -526 -555 -313 -883 109 -167 288 -263 489
-263 166 0 295 53 411 169 152 152 210 355 160 553 -56 217 -212 377 -421 433
-87 23 -241 19 -326 -9z m296 -231 c93 -33 169 -109 203 -205 31 -88 30 -95
-12 -133 -94 -85 -244 -129 -374 -110 -128 18 -277 108 -277 166 0 50 42 140
89 190 96 103 239 139 371 92z"/>
</g>
</svg>
